<?xml version="1.0" standalone="no"?>
<!DOCTYPE svg PUBLIC "-//W3C//DTD SVG 20010904//EN"
 "http://www.w3.org/TR/2001/REC-SVG-20010904/DTD/svg10.dtd">
<svg version="1.0" xmlns="http://www.w3.org/2000/svg"
 width="1296.000000pt" height="1728.000000pt" viewBox="0 0 1296.000000 1728.000000"
 preserveAspectRatio="xMidYMid meet">

<g transform="translate(0.000000,1728.000000) scale(0.100000,-0.100000)"
fill="#000000" stroke="none">
<path d="M6610 14065 l0 -85 -525 0 -525 0 0 -90 0 -90 -170 0 -170 0 0 -85 0
-85 -175 0 -175 0 0 -90 0 -90 -85 0 -85 0 0 -85 0 -85 -90 0 -90 0 0 -85 0
-85 -85 0 -85 0 0 -90 0 -90 -90 0 -90 0 0 -85 0 -85 -170 0 -170 0 0 -90 0
-90 -90 0 -90 0 0 -85 0 -85 -85 0 -85 0 0 -85 0 -85 -90 0 -90 0 0 -90 0 -90
90 0 90 0 0 -85 0 -85 -90 0 -90 0 0 -870 0 -870 90 0 90 0 0 -175 0 -175 85
0 85 0 0 -175 0 -175 -85 0 -85 0 0 -85 0 -85 85 0 85 0 0 -85 0 -85 90 0 90
0 0 -175 0 -175 85 0 85 0 0 610 0 610 85 0 85 0 0 85 0 85 90 0 90 0 0 -175
0 -175 85 0 85 0 0 -85 0 -85 175 0 175 0 0 -90 0 -90 695 0 695 0 0 265 0
265 85 0 85 0 0 345 0 345 -85 0 -85 0 0 85 0 85 -435 0 -435 0 0 90 0 90 175
0 175 0 0 85 0 85 435 0 435 0 0 -85 0 -85 85 0 85 0 0 -90 0 -90 90 0 90 0 0
-170 0 -170 -90 0 -90 0 0 -435 0 -435 90 0 90 0 0 -350 0 -350 85 0 85 0 0
-260 0 -260 85 0 85 0 0 350 0 350 265 0 265 0 0 85 0 85 435 0 435 0 0 85 0
85 85 0 85 0 0 90 0 90 85 0 85 0 0 -350 0 -350 175 0 175 0 0 350 0 350 85 0
85 0 0 260 0 260 90 0 90 0 0 695 0 695 -90 0 -90 0 0 350 0 350 -85 0 -85 0
0 170 0 170 -85 0 -85 0 0 90 0 90 -90 0 -90 0 0 260 0 260 -85 0 -85 0 0 85
0 85 -85 0 -85 0 0 90 0 90 -90 0 -90 0 0 85 0 85 -175 0 -175 0 0 90 0 90
-435 0 -435 0 0 85 0 85 -345 0 -345 0 0 -85z"/>
<path d="M5740 8150 l0 -90 85 0 85 0 0 -175 0 -175 260 0 260 0 0 -85 0 -85
265 0 265 0 0 -85 0 -85 -90 0 -90 0 0 -90 0 -90 -695 0 -695 0 0 -175 0 -175
175 0 175 0 0 -85 0 -85 175 0 175 0 0 85 0 85 170 0 170 0 0 -85 0 -85 90 0
90 0 0 -85 0 -85 -90 0 -90 0 0 -260 0 -260 175 0 175 0 0 -175 0 -175 -85 0
-85 0 0 -90 0 -90 -90 0 -90 0 0 90 0 90 -345 0 -345 0 0 85 0 85 85 0 85 0 0
90 0 90 -85 0 -85 0 0 85 0 85 -175 0 -175 0 0 85 0 85 -85 0 -85 0 0 90 0 90
-175 0 -175 0 0 85 0 85 -85 0 -85 0 0 -345 0 -345 170 0 170 0 0 -175 0 -175
90 0 90 0 0 -90 0 -90 85 0 85 0 0 -85 0 -85 85 0 85 0 0 -175 0 -175 90 0 90
0 0 -175 0 -175 175 0 175 0 0 -85 0 -85 170 0 170 0 0 -85 0 -85 -170 0 -170
0 0 -90 0 -90 170 0 170 0 0 -85 0 -85 90 0 90 0 0 85 0 85 345 0 345 0 0 -85
0 -85 90 0 90 0 0 85 0 85 175 0 175 0 0 -85 0 -85 85 0 85 0 0 -175 0 -175
-85 0 -85 0 0 -85 0 -85 -90 0 -90 0 0 -90 0 -90 -85 0 -85 0 0 -85 0 -85
-785 0 -785 0 0 85 0 85 -175 0 -175 0 0 90 0 90 -170 0 -170 0 0 85 0 85 -90
0 -90 0 0 175 0 175 -85 0 -85 0 0 85 0 85 -85 0 -85 0 0 175 0 175 -90 0 -90
0 0 175 0 175 -85 0 -85 0 0 260 0 260 85 0 85 0 0 85 0 85 -175 0 -175 0 0
-85 0 -85 -85 0 -85 0 0 -85 0 -85 -175 0 -175 0 0 -90 0 -90 -85 0 -85 0 0
-85 0 -85 -350 0 -350 0 0 -90 0 -90 -85 0 -85 0 0 -2260 0 -2260 3910 0 3910
0 0 2260 0 2260 -85 0 -85 0 0 90 0 90 -175 0 -175 0 0 85 0 85 -345 0 -345 0
0 90 0 90 -90 0 -90 0 0 170 0 170 -85 0 -85 0 0 90 0 90 -85 0 -85 0 0 85 0
85 -90 0 -90 0 0 260 0 260 -85 0 -85 0 0 90 0 90 85 0 85 0 0 345 0 345 90 0
90 0 0 350 0 350 -90 0 -90 0 0 -90 0 -90 -85 0 -85 0 0 -85 0 -85 85 0 85 0
0 -85 0 -85 -175 0 -175 0 0 -90 0 -90 -170 0 -170 0 0 90 0 90 -350 0 -350 0
0 85 0 85 85 0 85 0 0 85 0 85 90 0 90 0 0 90 0 90 85 0 85 0 0 85 0 85 -85 0
-85 0 0 90 0 90 -350 0 -350 0 0 -90 0 -90 -175 0 -175 0 0 90 0 90 -345 0
-345 0 0 -90z m1390 -870 l0 -90 -85 0 -85 0 0 90 0 90 85 0 85 0 0 -90z m350
-870 l0 -90 -260 0 -260 0 0 90 0 90 260 0 260 0 0 -90z"/>
</g>
</svg>
