<?xml version="1.0" standalone="no"?>
<!DOCTYPE svg PUBLIC "-//W3C//DTD SVG 20010904//EN"
 "http://www.w3.org/TR/2001/REC-SVG-20010904/DTD/svg10.dtd">
<svg version="1.0" xmlns="http://www.w3.org/2000/svg"
 width="460.000000pt" height="460.000000pt" viewBox="0 0 460.000000 460.000000"
 preserveAspectRatio="xMidYMid meet">

<g transform="translate(0.000000,460.000000) scale(0.100000,-0.100000)"
fill="#000000" stroke="none">
<path d="M2350 4240 l0 -30 -184 0 -185 0 -3 -32 c-3 -33 -4 -33 -60 -36 -57
-3 -58 -4 -58 -32 l0 -30 -65 0 -65 0 0 -30 c0 -27 -3 -30 -30 -30 -27 0 -30
-3 -30 -30 0 -27 -3 -30 -30 -30 -27 0 -30 -3 -30 -30 0 -27 -3 -30 -30 -30
-27 0 -30 -3 -30 -30 0 -27 -3 -30 -30 -30 -27 0 -30 -3 -30 -30 l0 -30 -65 0
-65 0 0 -35 c0 -32 -2 -35 -30 -35 -27 0 -30 -3 -30 -30 0 -27 -3 -30 -30 -30
-27 0 -30 -3 -30 -30 0 -28 -3 -30 -35 -30 -32 0 -35 -2 -35 -30 0 -28 3 -30
35 -30 32 0 35 -2 35 -30 0 -28 -3 -30 -35 -30 l-35 0 0 -310 0 -310 35 0 35
0 0 -60 0 -60 30 0 30 0 0 -65 0 -65 -30 0 c-25 0 -30 -4 -30 -25 0 -21 5 -25
30 -25 27 0 30 -3 30 -30 0 -27 3 -30 30 -30 l30 0 0 -65 0 -65 30 0 30 0 0
215 0 215 30 0 c27 0 30 3 30 30 0 28 3 30 35 30 l35 0 0 -60 0 -60 30 0 c27
0 30 -3 30 -30 l0 -30 60 0 60 0 0 -35 0 -35 245 0 245 0 0 95 0 95 35 0 35 0
0 120 0 120 -35 0 c-33 0 -35 2 -35 35 l0 35 -155 0 -155 0 0 30 0 30 65 0 65
0 0 30 0 30 155 0 155 0 0 -30 c0 -27 3 -30 30 -30 27 0 30 -3 30 -30 0 -27 3
-30 30 -30 l30 0 0 -65 0 -65 -30 0 -30 0 0 -150 0 -150 30 0 30 0 0 -125 0
-125 35 0 35 0 0 -95 c0 -95 0 -95 25 -95 l25 0 0 130 0 130 95 0 95 0 0 30 0
30 155 0 155 0 0 25 c0 21 5 25 30 25 28 0 30 3 30 35 0 33 2 35 35 35 l35 0
0 -125 0 -125 55 0 55 0 0 125 0 125 35 0 35 0 0 90 0 90 30 0 30 0 0 245 0
245 -30 0 -30 0 0 124 0 125 -32 3 c-33 3 -33 4 -36 60 -3 53 -5 57 -30 60
-22 2 -28 9 -30 36 -3 28 -7 32 -33 32 l-29 0 0 90 0 90 -30 0 c-27 0 -30 3
-30 30 0 27 -3 30 -30 30 -27 0 -30 3 -30 30 0 27 -3 30 -30 30 -27 0 -30 3
-30 30 l0 30 -65 0 -65 0 0 35 0 35 -155 0 -155 0 0 30 0 30 -120 0 -120 0 0
-30z"/>
<path d="M2040 2140 c0 -28 3 -30 35 -30 l35 0 0 -60 0 -60 90 0 90 0 0 -30 0
-30 90 0 90 0 0 -30 c0 -27 3 -30 30 -30 27 0 30 3 30 30 0 27 3 30 30 30 27
0 30 3 30 30 0 27 3 30 30 30 27 0 30 3 30 30 0 28 3 30 35 30 32 0 35 2 35
30 0 28 -3 30 -35 30 -32 0 -35 2 -35 30 l0 30 -120 0 -120 0 0 -30 0 -30 -60
0 -60 0 0 30 0 30 -125 0 -125 0 0 -30z"/>
<path d="M3030 2020 c0 -27 -3 -30 -30 -30 -27 0 -30 -3 -30 -30 0 -27 3 -30
30 -30 28 0 30 -3 30 -35 l0 -35 -65 0 -65 0 0 -30 0 -30 -60 0 -60 0 0 30 0
30 -120 0 -120 0 0 -30 c0 -28 -3 -30 -35 -30 -32 0 -35 2 -35 30 0 27 -3 30
-30 30 -27 0 -30 -3 -30 -30 l0 -30 -245 0 -245 0 0 -60 0 -60 60 0 60 0 0
-35 0 -35 60 0 60 0 0 35 0 35 65 0 65 0 0 -35 c0 -32 2 -35 30 -35 25 0 30
-4 30 -25 0 -21 -5 -25 -30 -25 l-30 0 0 -90 0 -90 60 0 60 0 0 -70 0 -70 -30
0 c-27 0 -30 -3 -30 -30 0 -27 -3 -30 -30 -30 -27 0 -30 3 -30 30 l0 30 -125
0 -125 0 0 35 c0 32 2 35 30 35 27 0 30 3 30 30 0 27 -3 30 -30 30 -27 0 -30
3 -30 30 l0 30 -65 0 -65 0 0 30 c0 25 -4 30 -25 30 -22 0 -25 4 -25 35 l0 35
-65 0 c-63 0 -65 1 -65 25 0 21 -5 25 -30 25 l-30 0 0 -115 0 -115 60 0 60 0
0 -65 0 -65 35 0 c32 0 35 -2 35 -30 0 -27 3 -30 30 -30 28 0 30 -3 30 -35 0
-32 2 -35 30 -35 l30 0 0 -60 0 -60 30 0 30 0 0 -60 0 -60 65 0 65 0 0 -30 0
-30 60 0 60 0 0 -35 0 -35 -60 0 -60 0 0 -30 0 -30 60 0 60 0 0 -30 c0 -27 3
-30 30 -30 27 0 30 3 30 30 l0 30 125 0 125 0 0 -30 c0 -25 4 -30 25 -30 21 0
25 5 25 30 l0 30 70 0 70 0 0 -30 c0 -25 4 -30 25 -30 24 0 25 -2 25 -65 0
-63 -1 -65 -25 -65 -20 0 -25 -5 -25 -25 0 -22 -4 -25 -35 -25 -33 0 -35 -2
-35 -35 0 -32 -2 -35 -30 -35 -27 0 -30 -3 -30 -30 l0 -30 -280 0 -280 0 0 30
0 30 -65 0 -65 0 0 35 0 35 -55 0 c-52 0 -55 1 -55 25 0 22 -4 25 -35 25 l-35
0 0 65 0 65 -30 0 c-25 0 -30 4 -30 25 0 21 -5 25 -30 25 l-30 0 0 65 0 65
-30 0 -30 0 0 65 0 65 -35 0 -35 0 0 90 0 90 35 0 c32 0 35 2 35 30 l0 30 -60
0 -60 0 0 -30 c0 -28 -3 -30 -35 -30 -32 0 -35 -2 -35 -30 l0 -30 -60 0 -60 0
0 -30 c0 -27 -3 -30 -30 -30 -27 0 -30 -3 -30 -30 l0 -30 -125 0 -125 0 0 -30
c0 -27 -3 -30 -30 -30 l-30 0 0 -440 0 -440 1385 0 1385 0 0 440 0 440 -30 0
c-27 0 -30 3 -30 30 l0 30 -60 0 -60 0 0 30 0 30 -125 0 -125 0 0 30 c0 27 -3
30 -30 30 l-30 0 0 60 0 60 -30 0 c-27 0 -30 3 -30 30 0 27 -3 30 -30 30 -27
0 -30 3 -30 30 0 27 -3 30 -30 30 l-30 0 0 95 0 95 -30 0 c-28 0 -30 3 -30 35
0 32 2 35 30 35 l30 0 0 125 0 125 30 0 30 0 0 120 0 120 -30 0 c-27 0 -30 -3
-30 -30z m-370 -495 l0 -35 -95 0 -95 0 0 35 0 35 95 0 95 0 0 -35z"/>
</g>
</svg>
